# xmcd CD database file generated by OrangeCD 5.2
#
# Track frame offsets:
#	150
#	16565
#	49696
#	83458
#	95712
#	107800
#	135017
#	151035
#	158399
#	192019
#	212036
#	235700
#	257841
#	270224
#	273916
#	297696
#
# Disc length: 4275 seconds
#
# Revision: 0
# Processed by: cddbd v1.5.1PL0 Copyright (c) Steve Scherf et al.
# Submitted via: OrangeCD 5.2
#
DISCID=bd10b110
DTITLE=Rev. Gary Davis - Friends Centre, Seattle 1967
DYEAR=1967
DGENRE=Blues
TTITLE0=Spoken Introduction
TTITLE1=Old Time Religion
TTITLE2=Let Us Get Together
TTITLE3=I'm Gonna Sit Down on the Banks of the River
TTITLE4="Don't feel like it"
TTITLE5=Feel Like My Time Ain't Long
TTITLE6="Can't do nothing but cry"
TTITLE7=Audience participation
TTITLE8=Come and See Me Sometime
TTITLE9="I love to talk about women"
TTITLE10=She's Just Funny That Way
TTITLE11=Make Believe Stunt
TTITLE12=Cincinnati Flow Rag
TTITLE13="No man lives by himself"
TTITLE14=I Heard the Angels singing
TTITLE15=Samson and Delilah
EXTD=
EXTT0=
EXTT1=
EXTT2=
EXTT3=
EXTT4=
EXTT5=
EXTT6=
EXTT7=
EXTT8=
EXTT9=
EXTT10=
EXTT11=
EXTT12=
EXTT13=
EXTT14=
EXTT15=
PLAYORDER=
